<?xml version="1.0" encoding="utf-8"?>
<!-- Generator: Adobe Illustrator 26.5.0, SVG Export Plug-In . SVG Version: 6.00 Build 0)  -->
<svg version="1.1" id="Layer_1" xmlns="http://www.w3.org/2000/svg" xmlns:xlink="http://www.w3.org/1999/xlink" x="0px" y="0px"
	 viewBox="0 0 396.69 396.82" style="enable-background:new 0 0 396.69 396.82;" xml:space="preserve">
<style type="text/css">
	.st0{fill:#4AAF6E;}
</style>
<g>
	<path class="st0" d="M333.53,385.98L11.09,63.54c-14.45-14.45-14.45-37.88,0-52.33l0,0c14.45-14.45,37.88-14.45,52.33,0
		l322.44,322.44c14.45,14.45,14.45,37.88,0,52.33l0,0C371.4,400.43,347.98,400.43,333.53,385.98z"/>
</g>
<g>
	<path class="st0" d="M385.6,63.16L63.16,385.6c-14.45,14.45-37.88,14.45-52.33,0l0,0c-14.45-14.45-14.45-37.88,0-52.33
		L333.28,10.84c14.45-14.45,37.88-14.45,52.33,0l0,0C400.05,25.29,400.05,48.71,385.6,63.16z"/>
</g>
</svg>
