<?xml version="1.0" encoding="utf-8"?>
<!-- Generator: Adobe Illustrator 26.5.0, SVG Export Plug-In . SVG Version: 6.00 Build 0)  -->
<svg version="1.1" id="Layer_1" xmlns="http://www.w3.org/2000/svg" xmlns:xlink="http://www.w3.org/1999/xlink" x="0px" y="0px"
	 viewBox="0 0 541.73 83.7" style="enable-background:new 0 0 541.73 83.7;" xml:space="preserve">
<style type="text/css">
	.st0{fill:#4AAF6EF;}
</style>
<g>
	<g>
		<g>
			<path class="st0" d="M31.53,82.64c-0.03,0-0.03,0-0.07,0.03c-0.07-0.68-0.11-1.37-0.18-2.02c-0.18-1.77-0.42-3.54-0.8-5.31
				c-0.73-3.91-2.48-7.45-5.07-10.65c-2.62-3.23-5.91-5.84-9.76-7.95c-2.06-1.12-4.16-2.11-6.26-3.17c-0.7-0.34-1.4-0.71-2.06-1.12
				c-0.35-0.22-0.7-0.47-0.94-0.75c-0.8-0.87-0.8-2.05,0-2.92c0.28-0.31,0.66-0.59,1.05-0.81c0.59-0.37,1.22-0.62,1.92-0.81
				c1.22-0.34,2.48-0.68,3.74-0.96c4.97-1.12,9.97-1.99,14.98-2.89c2.9-0.53,5.74-1.06,8.57-1.74c2.24-0.53,4.48-1.15,6.54-2.05
				c1.4-0.62,2.73-1.3,3.85-2.27c1.96-1.65,2.69-3.7,2.27-6.06c-0.21-1.27-0.7-2.45-1.36-3.57c-1.64-2.73-3.95-4.91-6.82-6.68
				c-2.48-1.49-5.21-2.45-8.22-2.67c-1.75-0.12-3.5-0.03-5.21,0.28c-2.48,0.43-4.86,1.24-7.1,2.27c-3.64,1.74-6.93,4.01-9.8,6.65
				c-3.85,3.54-6.79,7.58-8.75,12.2c-1.33,3.2-2.06,6.55-2.03,10c0.03,1.93,0.28,3.79,0.77,5.65c0.8,3.14,2.13,6.09,4.09,8.82
				c1.85,2.61,4.44,4.5,7.63,5.71c1.92,0.71,3.95,1.09,5.95,1.37c1.82,0.25,3.64,0.53,5.42,0.84c1.33,0.25,2.59,0.68,3.74,1.37
				c0.94,0.53,1.54,1.34,1.85,2.3c0.28,0.93,0.45,1.89,0.49,2.86c0.07,1.55-0.07,3.07-0.28,4.63c-0.03,0.16-0.03,0.25-0.03,0.43
				c0.63-0.06,1.22-0.16,1.82-0.19c0.59-0.03,1.19,0.06,1.78,0.06c0-0.16,0-0.31,0-0.43c-0.07-1.06-0.11-2.11-0.18-3.14
				c-0.03-1.34,0.03-2.64,0.38-3.91c0.35-1.27,1.12-2.2,2.41-2.83c0.77-0.37,1.57-0.68,2.41-0.9c1.57-0.4,3.18-0.59,4.79-0.81
				c1.54-0.25,3.11-0.43,4.65-0.75c3.6-0.71,6.58-2.39,9.03-4.81c1.68-1.65,2.9-3.57,3.81-5.62c1.75-3.98,2.55-8.11,2.41-12.39
				c-0.04-1.18-0.18-2.39-0.35-3.54c-0.38-2.3-1.01-4.57-1.85-6.77c-0.7-1.8-1.5-3.51-2.55-5.19c-0.1-0.16-0.21-0.31-0.31-0.47
				c-0.07,0.06-0.04,0.16,0,0.19c1.19,2.92,1.57,5.9,1.22,8.98c-0.24,1.89-0.77,3.7-1.64,5.43c-0.87,1.68-2.1,3.14-3.74,4.35
				c-0.91,0.62-1.82,1.27-2.73,1.83c-2.94,1.83-5.74,3.85-8.26,6.15c-1.43,1.3-2.8,2.61-4.02,4.07c-2.2,2.67-3.85,5.62-5,8.76
				c-1.08,2.89-1.75,5.84-2.03,8.88C31.67,81.31,31.6,81.99,31.53,82.64z M15.92,21.37c0.14-0.06,0.24-0.09,0.35-0.16
				c1.33-0.75,2.69-1.52,4.06-2.21c3.04-1.52,6.23-2.64,9.76-2.92c1.29-0.09,2.59-0.06,3.85,0.16c1.22,0.19,2.45,0.53,3.64,0.9
				c2.27,0.71,4.44,1.65,6.58,2.67c0.42,0.22,0.84,0.4,1.29,0.56c0.18,0.06,0.35,0.12,0.53,0.12c0.28,0.03,0.42-0.06,0.38-0.34
				c-0.03-0.25-0.07-0.5-0.17-0.71c-0.28-0.53-0.53-1.02-0.84-1.52c-1.68-2.52-3.64-4.88-5.84-7.05c-2.48-2.48-5.25-4.75-8.15-6.86
				c-1.47-1.06-2.97-2.08-4.48-3.07c-0.45-0.31-0.94-0.53-1.43-0.78C25.23,0.07,24.98,0,24.77,0c-0.38-0.03-0.49,0.16-0.38,0.43
				c0.07,0.22,0.18,0.43,0.31,0.62c0.32,0.53,0.66,1.02,0.98,1.55c1.43,2.39,1.64,4.91,0.66,7.45c-0.59,1.55-1.5,2.95-2.59,4.25
				c-1.47,1.8-3.22,3.42-5.07,4.91C17.78,19.97,16.83,20.65,15.92,21.37z M19.46,54.07c0.38,0.59,0.77,1.12,1.12,1.71
				c1.01-0.53,1.96-1.09,2.97-1.58c-0.35-0.56-0.66-1.06-0.98-1.58C21.52,53.11,20.51,53.57,19.46,54.07z M24.98,53.48
				c1.05-0.5,2.06-0.96,3.08-1.46c-0.28-0.5-0.49-0.96-0.77-1.43c-1.08,0.43-2.13,0.9-3.22,1.34
				C24.39,52.42,24.67,52.92,24.98,53.48z M32.12,48.85C31,49.26,29.92,49.6,28.8,50c0.24,0.5,0.45,0.9,0.7,1.37
				c1.08-0.43,2.1-0.84,3.15-1.27C32.51,49.69,32.33,49.29,32.12,48.85z M37.48,48.51c-0.18-0.37-0.28-0.71-0.42-1.06
				c-1.12,0.31-2.24,0.62-3.36,0.9c0.18,0.43,0.31,0.81,0.49,1.18C35.34,49.23,36.39,48.88,37.48,48.51z M42.3,46.8
				c-0.14-0.31-0.24-0.56-0.38-0.81c-1.12,0.34-2.17,0.71-3.29,1.06c0.14,0.34,0.28,0.65,0.38,0.99
				C40.17,47.58,41.22,47.21,42.3,46.8z M46.71,44.32c-1.08,0.37-2.13,0.75-3.22,1.15c0.11,0.25,0.21,0.47,0.32,0.75
				c1.12-0.43,2.17-0.84,3.22-1.34c-0.07-0.16-0.17-0.31-0.24-0.43C46.78,44.41,46.75,44.38,46.71,44.32z M48.5,44.13
				c1.01-0.56,1.89-1.27,2.8-1.96c-0.11-0.12-0.21-0.19-0.28-0.28c-0.94,0.62-1.85,1.18-2.8,1.8C48.29,43.82,48.39,43.98,48.5,44.13
				z M54.17,38.36c-0.04,0-0.07,0-0.07-0.03c-0.17,0.31-0.38,0.62-0.56,0.9c-0.21,0.31-0.42,0.59-0.66,0.87s-0.49,0.53-0.74,0.81
				c0.11,0.06,0.21,0.12,0.28,0.19c0.73-0.78,1.29-1.61,1.75-2.52C54.24,38.51,54.17,38.42,54.17,38.36z M55.08,35.75
				c-0.03,0-0.03,0-0.07,0c-0.03,0.16-0.07,0.28-0.1,0.43c-0.03,0.16-0.1,0.25-0.1,0.4c-0.04,0.16-0.14,0.25-0.07,0.4
				c0.03,0,0.07,0,0.11,0.03C54.9,36.56,55.01,36.15,55.08,35.75z"/>
		</g>
		<g>
			<path class="st0" d="M31.53,82.64c0.07-0.65,0.1-1.34,0.18-1.99c0.28-3.04,0.98-5.99,2.03-8.88c1.15-3.14,2.76-6.09,5-8.76
				c1.22-1.46,2.59-2.76,4.02-4.07c2.52-2.3,5.32-4.32,8.26-6.15c0.94-0.59,1.85-1.21,2.73-1.83c1.64-1.18,2.83-2.64,3.74-4.35
				c0.91-1.74,1.43-3.54,1.64-5.43c0.38-3.07,0-6.09-1.22-8.97c-0.03-0.06-0.03-0.09,0-0.19c0.11,0.16,0.21,0.31,0.32,0.47
				c1.01,1.65,1.85,3.42,2.55,5.19c0.84,2.21,1.47,4.44,1.85,6.77c0.18,1.18,0.31,2.36,0.35,3.54c0.14,4.25-0.7,8.42-2.41,12.39
				c-0.91,2.05-2.13,3.98-3.81,5.62c-2.48,2.42-5.42,4.07-9.03,4.81c-1.54,0.31-3.11,0.53-4.65,0.75c-1.61,0.25-3.22,0.43-4.79,0.81
				c-0.84,0.22-1.64,0.53-2.41,0.9c-1.29,0.62-2.06,1.55-2.41,2.83c-0.35,1.3-0.42,2.61-0.38,3.91c0.03,1.06,0.1,2.11,0.18,3.14
				c0,0.12,0,0.25,0,0.43c-0.63-0.03-1.22-0.09-1.78-0.06c-0.59,0.03-1.19,0.12-1.82,0.19c0-0.16,0-0.31,0.03-0.43
				c0.21-1.55,0.32-3.07,0.28-4.63c-0.03-0.96-0.18-1.93-0.49-2.86c-0.28-0.99-0.91-1.74-1.85-2.3c-1.15-0.65-2.38-1.12-3.74-1.37
				c-1.82-0.34-3.64-0.59-5.42-0.84c-2.06-0.28-4.06-0.62-5.95-1.37C9.31,68.7,6.79,66.8,4.9,64.2c-1.96-2.73-3.25-5.65-4.06-8.82
				c-0.49-1.86-0.73-3.76-0.77-5.65c-0.07-3.45,0.7-6.77,2.03-10c1.96-4.63,4.9-8.66,8.75-12.2c2.83-2.61,6.12-4.84,9.8-6.55
				c2.27-1.06,4.58-1.83,7.1-2.27c1.75-0.31,3.46-0.43,5.21-0.28c3.01,0.22,5.74,1.15,8.22,2.67c2.87,1.74,5.21,3.91,6.82,6.68
				c0.66,1.12,1.15,2.3,1.36,3.57c0.42,2.39-0.35,4.38-2.27,6.06c-1.12,0.96-2.45,1.68-3.85,2.27c-2.1,0.9-4.3,1.52-6.54,2.05
				c-2.83,0.68-5.7,1.21-8.57,1.74c-5,0.9-10.04,1.77-14.98,2.89c-1.26,0.28-2.48,0.62-3.74,0.96c-0.7,0.19-1.33,0.43-1.92,0.81
				c-0.38,0.25-0.74,0.5-1.05,0.81c-0.8,0.84-0.8,2.05,0,2.92c0.28,0.28,0.59,0.56,0.94,0.75c0.7,0.4,1.36,0.78,2.06,1.12
				c2.06,1.06,4.2,2.05,6.26,3.17c3.81,2.08,7.1,4.69,9.76,7.95c2.59,3.2,4.34,6.71,5.11,10.62c0.38,1.74,0.63,3.51,0.8,5.31
				c0.07,0.68,0.11,1.37,0.18,2.02C31.49,82.64,31.53,82.64,31.53,82.64z"/>
		</g>
		<g>
			<path class="st0" d="M15.92,21.37c0.91-0.71,1.85-1.4,2.73-2.11c1.85-1.49,3.6-3.07,5.07-4.91c1.08-1.3,1.96-2.7,2.59-4.25
				c1.01-2.58,0.8-5.06-0.66-7.45c-0.31-0.53-0.66-1.06-0.98-1.55c-0.14-0.22-0.24-0.4-0.32-0.62C24.28,0.16,24.42,0,24.81,0.04
				c0.24,0.03,0.49,0.06,0.66,0.16c0.49,0.22,0.98,0.43,1.4,0.75c1.5,1.02,3.01,2.02,4.44,3.11c2.9,2.11,5.67,4.38,8.15,6.86
				c2.17,2.21,4.16,4.53,5.84,7.05c0.32,0.5,0.59,0.99,0.84,1.52c0.1,0.22,0.18,0.47,0.18,0.71c0.03,0.25-0.11,0.34-0.38,0.34
				c-0.18-0.03-0.38-0.06-0.52-0.12c-0.42-0.19-0.87-0.37-1.29-0.56c-2.1-1.03-4.27-1.96-6.58-2.67c-1.19-0.37-2.38-0.71-3.64-0.9
				c-1.29-0.19-2.59-0.25-3.85-0.16c-3.53,0.28-6.68,1.4-9.76,2.92c-1.4,0.68-2.69,1.46-4.06,2.21c-0.1,0.06-0.21,0.12-0.31,0.19
				C15.96,21.37,15.96,21.37,15.92,21.37z"/>
		</g>
		<g>
			<path class="st0" d="M19.46,54.07c1.05-0.53,2.06-0.99,3.11-1.49c0.31,0.53,0.63,1.02,0.98,1.58c-1.01,0.53-1.96,1.06-2.97,1.58
				C20.19,55.19,19.84,54.66,19.46,54.07z"/>
		</g>
		<g>
			<path class="st0" d="M24.98,53.48c-0.31-0.53-0.59-1.03-0.91-1.55c1.08-0.43,2.13-0.9,3.22-1.34c0.28,0.5,0.49,0.93,0.77,1.43
				C27.05,52.52,26.03,52.98,24.98,53.48z"/>
		</g>
		<g>
			<path class="st0" d="M32.12,48.85c0.18,0.43,0.38,0.84,0.56,1.27c-1.05,0.43-2.1,0.84-3.15,1.27c-0.24-0.47-0.45-0.9-0.7-1.37
				C29.92,49.63,31,49.26,32.12,48.85z"/>
		</g>
		<g>
			<path class="st0" d="M37.48,48.51c-1.12,0.34-2.17,0.71-3.29,1.09c-0.18-0.4-0.32-0.78-0.49-1.18c1.12-0.31,2.2-0.62,3.36-0.9
				C37.23,47.83,37.37,48.14,37.48,48.51z"/>
		</g>
		<g>
			<path class="st0" d="M42.31,46.8c-1.12,0.4-2.17,0.81-3.25,1.18c-0.14-0.34-0.28-0.62-0.38-0.99c1.12-0.34,2.17-0.71,3.29-1.06
				C42.06,46.24,42.17,46.49,42.31,46.8z"/>
		</g>
		<g>
			<path class="st0" d="M46.71,44.32c0.07,0.06,0.07,0.09,0.11,0.12c0.07,0.16,0.18,0.25,0.24,0.43c-1.05,0.5-2.1,0.9-3.22,1.34
				c-0.1-0.25-0.21-0.5-0.31-0.75C44.58,45.1,45.63,44.72,46.71,44.32z"/>
		</g>
	</g>
	<g>
		<path class="st0" d="M48.5,44.13c-0.11-0.16-0.21-0.31-0.28-0.43c0.94-0.62,1.85-1.18,2.8-1.8c0.07,0.09,0.18,0.16,0.28,0.28
			C50.42,42.89,49.55,43.61,48.5,44.13z"/>
	</g>
	<g>
		<path class="st0" d="M54.17,38.36c0,0.06,0.07,0.16,0.03,0.19c-0.45,0.9-1.01,1.74-1.75,2.52c-0.1-0.06-0.18-0.12-0.28-0.19
			c0.28-0.28,0.49-0.53,0.73-0.81c0.24-0.28,0.45-0.56,0.66-0.87c0.21-0.28,0.38-0.59,0.56-0.9C54.13,38.36,54.13,38.36,54.17,38.36
			z"/>
	</g>
	<g>
		<path class="st0" d="M55.08,35.75c-0.11,0.4-0.18,0.81-0.28,1.21c-0.04,0-0.07,0-0.11-0.03c-0.07-0.16,0.07-0.25,0.07-0.4
			c0.04-0.16,0.07-0.25,0.11-0.4c0.07-0.16,0.07-0.28,0.11-0.43C55.08,35.75,55.08,35.75,55.08,35.75z"/>
	</g>
</g>
<g>
	<path class="st0" d="M131.77,32.67c-0.91-1.68-2.22-2.96-3.92-3.85c-1.7-0.89-3.71-1.33-6.01-1.33c-3.98,0-7.18,1.31-9.58,3.92
		c-2.4,2.62-3.6,6.11-3.6,10.48c0,4.66,1.26,8.29,3.78,10.91s5.99,3.92,10.4,3.92c3.02,0,5.58-0.77,7.67-2.3
		c2.09-1.54,3.61-3.74,4.57-6.62h-15.62v-9.07h26.78v11.45c-0.91,3.07-2.46,5.93-4.64,8.57c-2.19,2.64-4.96,4.78-8.32,6.41
		c-3.36,1.63-7.15,2.45-11.38,2.45c-4.99,0-9.44-1.09-13.36-3.28c-3.91-2.18-6.96-5.22-9.14-9.11s-3.28-8.33-3.28-13.32
		s1.09-9.44,3.28-13.36c2.18-3.91,5.22-6.96,9.11-9.14s8.33-3.28,13.32-3.28c6.05,0,11.15,1.46,15.3,4.39
		c4.15,2.93,6.9,6.98,8.24,12.17h-13.6V32.67z"/>
	<path class="st0" d="M178.85,67.23l-10.51-19.08h-2.95v19.08h-12.31V16.68h20.66c3.98,0,7.38,0.7,10.19,2.09s4.91,3.3,6.3,5.72
		s2.09,5.12,2.09,8.1c0,3.36-0.95,6.36-2.84,9c-1.9,2.64-4.69,4.51-8.39,5.62l11.66,20.02C192.75,67.23,178.85,67.23,178.85,67.23z
		 M165.39,39.44h7.63c2.26,0,3.95-0.55,5.08-1.66c1.13-1.1,1.69-2.66,1.69-4.68c0-1.92-0.56-3.43-1.69-4.54
		c-1.13-1.1-2.82-1.66-5.08-1.66h-7.63V39.44z"/>
	<path class="st0" d="M212.33,26.55v10.22h16.49v9.5h-16.49v11.09h18.65v9.86h-30.96V16.68h30.96v9.86L212.33,26.55L212.33,26.55z"
		/>
	<path class="st0" d="M251.28,26.55v10.22h16.49v9.5h-16.49v11.09h18.65v9.86h-30.96V16.68h30.96v9.86L251.28,26.55L251.28,26.55z"
		/>
	<path class="st0" d="M323.14,67.23h-12.31l-20.59-31.18v31.18h-12.31V16.68h12.31L310.83,48V16.68h12.31L323.14,67.23L323.14,67.23
		z"/>
	<path class="st0" d="M333.22,28.53c2.16-3.91,5.17-6.96,9.04-9.14c3.86-2.18,8.24-3.28,13.14-3.28c6,0,11.14,1.58,15.41,4.75
		s7.13,7.49,8.57,12.96h-13.54c-1.01-2.11-2.44-3.72-4.28-4.82c-1.85-1.1-3.95-1.66-6.3-1.66c-3.79,0-6.86,1.32-9.22,3.96
		c-2.35,2.64-3.53,6.17-3.53,10.58c0,4.42,1.18,7.94,3.53,10.58c2.35,2.64,5.42,3.96,9.22,3.96c2.35,0,4.45-0.55,6.3-1.66
		c1.85-1.1,3.28-2.71,4.28-4.82h13.54c-1.44,5.47-4.3,9.78-8.57,12.92c-4.27,3.14-9.41,4.72-15.41,4.72c-4.9,0-9.28-1.09-13.14-3.28
		c-3.86-2.18-6.88-5.22-9.04-9.11s-3.24-8.33-3.24-13.32C329.98,36.89,331.06,32.44,333.22,28.53z"/>
	<path class="st0" d="M399.24,57.72h16.13v9.5h-28.44V16.68h12.31V57.72z"/>
	<path class="st0" d="M433.59,16.68v50.54h-12.31V16.68H433.59z"/>
	<path class="st0" d="M443.67,28.53c2.16-3.91,5.17-6.96,9.04-9.14c3.86-2.18,8.24-3.28,13.14-3.28c6,0,11.14,1.58,15.41,4.75
		s7.13,7.49,8.57,12.96h-13.54c-1.01-2.11-2.44-3.72-4.28-4.82c-1.85-1.1-3.95-1.66-6.3-1.66c-3.79,0-6.87,1.32-9.22,3.96
		s-3.53,6.17-3.53,10.58c0,4.42,1.18,7.94,3.53,10.58c2.35,2.64,5.42,3.96,9.22,3.96c2.35,0,4.45-0.55,6.3-1.66
		c1.85-1.1,3.28-2.71,4.28-4.82h13.54c-1.44,5.47-4.3,9.78-8.57,12.92c-4.27,3.14-9.41,4.72-15.41,4.72c-4.9,0-9.28-1.09-13.14-3.28
		c-3.86-2.18-6.88-5.22-9.04-9.11s-3.24-8.33-3.24-13.32C440.43,36.89,441.51,32.44,443.67,28.53z"/>
	<path class="st0" d="M526.68,67.23l-16.99-22.32v22.32h-12.31V16.68h12.31v22.18l16.85-22.18h14.47l-19.58,24.77l20.3,25.78H526.68
		z"/>
</g>
</svg>
