<?xml version="1.0" encoding="utf-8"?>
<!-- Generator: Adobe Illustrator 26.5.0, SVG Export Plug-In . SVG Version: 6.00 Build 0)  -->
<svg version="1.1" id="Layer_1" xmlns="http://www.w3.org/2000/svg" xmlns:xlink="http://www.w3.org/1999/xlink" x="0px" y="0px"
	 viewBox="0 0 270 242.34" style="enable-background:new 0 0 270 242.34;" xml:space="preserve">
<style type="text/css">
	.st0{fill:#4AAF6E;}
	.st1{fill:#FFFFFF;}
</style>
<path class="st0" d="M223.7,0H46.3C20.73,0,0,20.73,0,46.3v86.39C0,158.27,20.73,179,46.3,179h8.22c6.44,0,12.61,2.56,17.17,7.11
	l50.86,50.86c7.15,7.15,18.74,7.15,25.89,0l50.86-50.86c4.55-4.55,10.73-7.11,17.17-7.11h7.22c25.57,0,46.3-20.73,46.3-46.3V46.3
	C270,20.73,249.27,0,223.7,0z"/>
<path class="st1" d="M197.96,109.65l-47.32,47.32c-8.67,8.67-22.72,8.67-31.39,0l-47.32-47.32C31.5,69.22,94.51,6.21,134.94,46.64
	C175.59,5.99,238.6,69,197.96,109.65z"/>
</svg>
