<?xml version="1.0" encoding="utf-8"?>
<!-- Generator: Adobe Illustrator 26.5.0, SVG Export Plug-In . SVG Version: 6.00 Build 0)  -->
<svg version="1.1" id="Layer_1" xmlns="http://www.w3.org/2000/svg" xmlns:xlink="http://www.w3.org/1999/xlink" x="0px" y="0px"
	 viewBox="0 0 530 446" style="enable-background:new 0 0 530 446;" xml:space="preserve">
<style type="text/css">
	.st0{fill:#4AAF6E;}
</style>
<g>
	<path class="st0" d="M493,74H37C16.57,74,0,57.43,0,37v0C0,16.57,16.57,0,37,0l456,0c20.43,0,37,16.57,37,37v0
		C530,57.43,513.43,74,493,74z"/>
</g>
<g>
	<path class="st0" d="M493,198H37c-20.43,0-37-16.57-37-37v0c0-20.43,16.57-37,37-37h456c20.43,0,37,16.57,37,37v0
		C530,181.43,513.43,198,493,198z"/>
</g>
<g>
	<path class="st0" d="M493,322H37c-20.43,0-37-16.57-37-37v0c0-20.43,16.57-37,37-37h456c20.43,0,37,16.57,37,37v0
		C530,305.43,513.43,322,493,322z"/>
</g>
<g>
	<path class="st0" d="M493,446H37c-20.43,0-37-16.57-37-37v0c0-20.43,16.57-37,37-37h456c20.43,0,37,16.57,37,37v0
		C530,429.43,513.43,446,493,446z"/>
</g>
</svg>
